<svg xmlns:inkscape="http://www.inkscape.org/namespaces/inkscape" xmlns:sodipodi="http://sodipodi.sourceforge.net/DTD/sodipodi-0.dtd" xmlns="http://www.w3.org/2000/svg" xmlns:svg="http://www.w3.org/2000/svg" xmlns:rdf="http://www.w3.org/1999/02/22-rdf-syntax-ns#" xmlns:cc="http://creativecommons.org/ns#" xmlns:dc="http://purl.org/dc/elements/1.1/" viewBox="0 0 10.583333 13.2291675" version="1.1" x="0px" y="0px"><g><path style="color:#000000;paint-order:fill markers stroke;" d="m 4.4284129,0.26198498 c -1.2179564,0 -2.2127844,0.99041702 -2.2127844,2.20710102 0,0.785775 0.4151074,1.477917 1.0371454,1.869652 C 1.7845799,4.82837 0.72734722,6.210638 0.72734722,7.8424 V 8.992719 A 0.26460995,0.26460995 0 0 0 0.99296507,9.258337 H 2.2487014 A 0.26458349,0.26458349 0 0 0 2.5122528,8.992719 0.26458349,0.26458349 0 0 0 2.2487014,8.728651 H 1.2565139 V 7.8424 c 0,-1.757759 1.410663,-3.164146 3.171899,-3.164146 1.1788272,0 2.1968354,0.632396 2.7440202,1.57613 a 0.26458349,0.26458349 0 0 0 0.361733,0.0956 0.26458349,0.26458349 0 0 0 0.097668,-0.361219 C 7.1846568,5.217514 6.4647071,4.62517 5.6040519,4.338738 6.225447,3.94699 6.6396469,3.254808 6.6396469,2.469086 c 0,-1.216684 -0.9932775,-2.20710102 -2.211234,-2.20710102 z m 0,0.527616 c 0.9324367,0 1.6815514,0.74924602 1.6815514,1.67948502 0,0.930241 -0.7491147,1.679482 -1.6815514,1.679485 -0.9324366,0 -1.6836178,-0.749244 -1.6836178,-1.679485 0,-0.930239 0.7511812,-1.67948502 1.6836178,-1.67948502 z M 7.0670125,6.971135 A 0.26460995,0.26460995 0 0 0 6.8287843,7.121514 L 5.6882847,9.490363 5.3249985,8.859911 A 0.26460995,0.26460995 0 0 0 5.096589,8.728651 H 3.6005581 A 0.26458349,0.26458349 0 0 0 3.3364907,8.992719 0.26458349,0.26458349 0 0 0 3.6005581,9.256268 H 4.944144 l 0.5353685,0.931727 a 0.26460995,0.26460995 0 0 0 0.4687041,-0.01757 l 1.1187959,-2.324407 0.611333,1.261941 a 0.26460995,0.26460995 0 0 0 0.2382282,0.14831 H 9.5903728 A 0.26458349,0.26458349 0 0 0 9.855988,8.992719 0.26458349,0.26458349 0 0 0 9.5903728,8.728651 H 8.0829702 L 7.3052407,7.121514 A 0.26460995,0.26460995 0 0 0 7.0670125,6.971135 Z" fill="#000000" fill-rule="evenodd" stroke-width="1" stroke-linecap="round" stroke-linejoin="round"/></g><text x="0" y="25.583334" fill="#000000" font-size="5px" font-weight="bold" font-family="'Helvetica Neue', Helvetica, Arial-Unicode, Arial, Sans-serif">Created by Larea</text><text x="0" y="30.583334" fill="#000000" font-size="5px" font-weight="bold" font-family="'Helvetica Neue', Helvetica, Arial-Unicode, Arial, Sans-serif">from the Noun Project</text></svg>